<?xml version="1.0" encoding="utf-8"?>
<!-- Generator: Adobe Illustrator 27.5.0, SVG Export Plug-In . SVG Version: 6.00 Build 0)  -->
<svg version="1.1" id="Illustration"
	xmlns="http://www.w3.org/2000/svg"
	xmlns:xlink="http://www.w3.org/1999/xlink" x="0px" y="0px" viewBox="0 0 1200 800" style="enable-background:new 0 0 1200 800;" xml:space="preserve">
	<g>
		<linearGradient id="SVGID_1_" gradientUnits="userSpaceOnUse" x1="72.086" y1="390.4994" x2="1151.9248" y2="390.4994">
			<stop offset="0" style="stop-color:#B37CFF"/>
			<stop offset="1" style="stop-color:#F895E7"/>
		</linearGradient>
		<path style="opacity:0.5;fill:url(#SVGID_1_);" d="M602.653,735.004c0,0-366.652,4.308-468.78-92.604
		c-102.128-96.912-63.687-193.527,14.512-220.896c78.199-27.37,91.537-55.833,49.46-94.227
		c-42.077-38.394-95.517-117.205-6.786-196.405c88.731-79.2,189.978,34.558,269.284,19.452
		c79.305-15.106,47.896-65.982,152.188-30.847c104.293,35.135,81.298-67.163,165.142-76.436s75.25,106.402,161.491,62.738
		s156.781-37.639,193.857,31.705c37.077,69.344,20.971,162.741-60.37,218.402c-81.341,55.661-72.61,51.866-42.211,106.56
		c30.399,54.695,57.658,234.559-80.733,260.249C811.317,748.386,602.653,735.004,602.653,735.004z"/>

		<linearGradient id="SVGID_00000111892992573403168620000012670393173929584828_" gradientUnits="userSpaceOnUse" x1="-1783.1017" y1="388.2039" x2="-811.9746" y2="388.2039" gradientTransform="matrix(-0.9988 -0.0485 -0.0485 0.9988 -739.1059 -18.3165)">
			<stop offset="0" style="stop-color:#B37CFF"/>
			<stop offset="1" style="stop-color:#F895E7"/>
		</linearGradient>
		<path style="opacity:0.5;fill:url(#SVGID_00000111892992573403168620000012670393173929584828_);" d="M531.776,735.204
		c0,0,329.157,19.76,425.02-60.872c95.863-80.631,65.448-167.128-3.627-194.564c-69.075-27.436-79.844-53.006-40.413-84.88
		c39.431-31.874,90.789-98.735,14.46-172.134c-76.329-73.398-172.117,22.061-242.709,5.343
		c-70.592-16.718-40.211-60.014-135.388-33.713c-95.176,26.302-70.164-62.507-145.081-74.301
		c-74.917-11.794-72.124,90.134-147.729,48.042c-75.605-42.092-139.223-39.876-175.48,19.387
		c-36.257,59.263-25.768,141.961,44.924,194.372c70.693,52.411,63.012,48.698,33.377,95.392s-61.781,203.413,61.433,231.997
		C343.777,737.86,531.776,735.204,531.776,735.204z"/>
		<g>

			<linearGradient id="SVGID_00000011033186110538273540000011434082688699436218_" gradientUnits="userSpaceOnUse" x1="847.5229" y1="493.7155" x2="1076" y2="493.7155">
				<stop offset="0" style="stop-color:#B37CFF"/>
				<stop offset="1" style="stop-color:#F895E7"/>
			</linearGradient>
			<path style="fill:url(#SVGID_00000011033186110538273540000011434082688699436218_);" d="M1067.064,253.106
			c-0.099-5.308-4.4-9.675-9.673-9.675H858.113c-5.343,0-10.59,4.596-10.59,9.975v480.853c0,2.588,1.481,5.07,3.301,6.898
			c1.82,1.827,4.516,2.85,7.087,2.844l208.356-0.573c2.593-0.007,5.131-1.062,6.944-2.928c1.814-1.866,2.836-4.445,2.787-7.055
			L1067.064,253.106z"/>
			<g style="opacity:0.5;">
				<g>
					<polygon style="fill:#FFFFFF;" points="920.306,300.094 863.536,300.017 863.085,270.717 919.911,270.717 				"/>
					<polygon style="fill:#FFFFFF;" points="983.938,300.079 927.225,300.002 926.837,270.717 983.605,270.717 				"/>
					<polygon style="fill:#FFFFFF;" points="1047.507,300.064 990.851,299.987 990.524,270.717 1047.235,270.717 				"/>
				</g>
				<g>
					<polygon style="fill:#FFFFFF;" points="921.015,352.686 864.344,352.722 863.895,323.614 920.621,323.59 				"/>
					<polygon style="fill:#FFFFFF;" points="984.537,352.645 927.923,352.681 927.536,323.587 984.205,323.564 				"/>
					<polygon style="fill:#FFFFFF;" points="1047.995,352.604 991.438,352.64 991.112,323.561 1047.724,323.537 				"/>
				</g>
				<g>
					<polygon style="fill:#FFFFFF;" points="921.722,404.916 865.15,404.976 864.703,375.969 921.33,375.922 				"/>
					<polygon style="fill:#FFFFFF;" points="985.134,404.849 928.618,404.909 928.232,375.916 984.802,375.869 				"/>
					<polygon style="fill:#FFFFFF;" points="1048.481,404.782 992.022,404.842 991.698,375.863 1048.212,375.816 				"/>
				</g>
				<g>
					<polygon style="fill:#FFFFFF;" points="922.427,456.966 865.953,457.049 865.507,428.142 922.036,428.072 				"/>
					<polygon style="fill:#FFFFFF;" points="985.728,456.873 929.31,456.956 928.926,428.063 985.398,427.993 				"/>
					<polygon style="fill:#FFFFFF;" points="1048.966,456.78 992.605,456.863 992.282,427.985 1048.697,427.915 				"/>
				</g>
				<g>
					<polygon style="fill:#FFFFFF;" points="923.129,508.836 866.753,508.942 866.309,480.135 922.739,480.042 				"/>
					<polygon style="fill:#FFFFFF;" points="986.321,508.717 930.001,508.823 929.617,480.03 985.992,479.937 				"/>
					<polygon style="fill:#FFFFFF;" points="1049.449,508.599 993.185,508.704 992.863,479.926 1049.181,479.833 				"/>
				</g>
				<g>
					<polygon style="fill:#FFFFFF;" points="923.829,560.527 867.55,560.656 867.107,531.948 923.44,531.832 				"/>
					<polygon style="fill:#FFFFFF;" points="986.911,560.383 930.688,560.511 930.307,531.818 986.583,531.702 				"/>
					<polygon style="fill:#FFFFFF;" points="1049.931,560.239 993.764,560.367 993.443,531.688 1049.663,531.572 				"/>
				</g>
				<g>
					<polygon style="fill:#FFFFFF;" points="924.526,612.04 868.345,612.192 867.903,583.583 924.139,583.444 				"/>
					<polygon style="fill:#FFFFFF;" points="987.499,611.87 931.374,612.022 930.993,583.427 987.173,583.288 				"/>
					<polygon style="fill:#FFFFFF;" points="1050.41,611.701 994.341,611.852 994.02,583.271 1050.144,583.133 				"/>
				</g>
				<g>
					<polygon style="fill:#FFFFFF;" points="925.221,663.376 869.136,663.55 868.697,635.039 924.835,634.878 				"/>
					<polygon style="fill:#FFFFFF;" points="988.086,663.181 932.057,663.355 931.678,634.858 987.76,634.697 				"/>
					<polygon style="fill:#FFFFFF;" points="1050.888,662.987 994.915,663.16 994.596,634.677 1050.623,634.516 				"/>
				</g>
				<g>
					<polygon style="fill:#FFFFFF;" points="925.913,714.536 869.925,714.732 869.487,686.319 925.529,686.135 				"/>
					<polygon style="fill:#FFFFFF;" points="988.67,714.316 932.738,714.512 932.36,686.113 988.346,685.929 				"/>
					<polygon style="fill:#FFFFFF;" points="1051.365,714.096 995.488,714.292 995.17,685.907 1051.1,685.724 				"/>
				</g>
			</g>
		</g>
		<g>

			<linearGradient id="SVGID_00000044881941376006706270000011263559404354505134_" gradientUnits="userSpaceOnUse" x1="931" y1="620.7845" x2="1140" y2="620.7845">
				<stop offset="0" style="stop-color:#A737D5"/>
				<stop offset="1" style="stop-color:#EF497A"/>
			</linearGradient>
			<path style="fill:url(#SVGID_00000044881941376006706270000011263559404354505134_);" d="M1131.764,500.609
			c-0.058-1.685-2.595-3.04-5.703-3.04H937.497c-3.151,0-6.497,1.397-6.497,3.105v238.528c0,1.275,1.332,2.497,2.997,3.397
			c1.665,0.9,4.121,1.404,6.473,1.401l190.629-0.282c2.372-0.003,4.692-0.523,6.351-1.442c1.659-0.919,2.593-2.164,2.549-3.449
			L1131.764,500.609z"/>
			<g>
				<polygon style="fill:#FFFFFF;" points="1023.474,514.473 961.791,514.357 961.814,510.174 1023.429,510.28 			"/>
				<polygon style="fill:#FFFFFF;" points="1023.644,529.881 961.706,529.728 961.73,525.51 1023.597,525.653 			"/>
				<polygon style="fill:#FFFFFF;" points="1023.814,545.417 961.621,545.226 961.645,540.973 1023.767,541.154 			"/>
				<polygon style="fill:#FFFFFF;" points="1023.986,561.081 961.535,560.851 961.559,556.564 1023.939,556.783 			"/>
				<polygon style="fill:#FFFFFF;" points="1024.159,576.876 961.449,576.607 961.472,572.284 1024.112,572.542 			"/>
				<polygon style="fill:#FFFFFF;" points="1024.51,608.864 961.273,608.514 961.297,604.118 1024.462,604.457 			"/>
				<polygon style="fill:#FFFFFF;" points="1025.048,657.868 961.004,657.391 961.029,652.883 1024.999,653.347 			"/>
				<polygon style="fill:#FFFFFF;" points="1024.334,592.803 961.361,592.494 961.385,588.135 1024.286,588.433 			"/>
				<polygon style="fill:#FFFFFF;" points="1024.688,625.061 961.184,624.67 961.209,620.237 1024.64,620.617 			"/>
				<polygon style="fill:#FFFFFF;" points="1024.868,641.395 961.095,640.961 961.119,636.491 1024.818,636.913 			"/>
				<polygon style="fill:#FFFFFF;" points="1025.231,674.481 960.913,673.962 960.938,669.414 1025.181,669.922 			"/>
				<polygon style="fill:#FFFFFF;" points="1025.415,691.237 960.821,690.674 960.847,686.087 1025.364,686.639 			"/>
				<polygon style="fill:#FFFFFF;" points="1025.6,708.138 960.729,707.529 960.754,702.904 1025.549,703.5 			"/>
				<polygon style="fill:#FFFFFF;" points="1025.787,725.185 960.635,724.531 960.661,719.865 1025.736,720.507 			"/>
				<polygon style="fill:#FFFFFF;" points="1104.346,514.625 1042.276,514.508 1042.209,510.312 1104.209,510.418 			"/>
				<polygon style="fill:#FFFFFF;" points="1104.85,530.082 1042.522,529.928 1042.455,525.697 1104.712,525.841 			"/>
				<polygon style="fill:#FFFFFF;" points="1105.357,545.668 1042.771,545.475 1042.703,541.209 1105.218,541.391 			"/>
				<polygon style="fill:#FFFFFF;" points="1105.869,561.383 1043.022,561.152 1042.953,556.85 1105.729,557.071 			"/>
				<polygon style="fill:#FFFFFF;" points="1106.385,577.23 1043.275,576.958 1043.205,572.621 1106.244,572.881 			"/>
				<polygon style="fill:#FFFFFF;" points="1107.431,609.323 1043.787,608.971 1043.716,604.56 1107.287,604.901 			"/>
				<polygon style="fill:#FFFFFF;" points="1109.032,658.492 1044.571,658.013 1044.499,653.489 1108.885,653.956 			"/>
				<polygon style="fill:#FFFFFF;" points="1106.906,593.209 1043.53,592.898 1043.46,588.524 1106.763,588.824 			"/>
				<polygon style="fill:#FFFFFF;" points="1107.96,625.575 1044.046,625.18 1043.975,620.732 1107.815,621.115 			"/>
				<polygon style="fill:#FFFFFF;" points="1108.494,641.963 1044.308,641.527 1044.236,637.041 1108.348,637.466 			"/>
				<polygon style="fill:#FFFFFF;" points="1109.575,675.163 1044.837,674.64 1044.764,670.077 1109.426,670.588 			"/>
				<polygon style="fill:#FFFFFF;" points="1110.123,691.977 1045.106,691.409 1045.032,686.807 1109.973,687.362 			"/>
				<polygon style="fill:#FFFFFF;" points="1110.676,708.937 1045.376,708.324 1045.302,703.682 1110.524,704.282 			"/>
				<polygon style="fill:#FFFFFF;" points="1111.233,726.043 1045.649,725.385 1045.574,720.703 1111.08,721.349 			"/>
			</g>
		</g>
		<g>

			<linearGradient id="SVGID_00000046332824725073151980000001168526432285367168_" gradientUnits="userSpaceOnUse" x1="-2631.749" y1="144.7337" x2="-2466.3596" y2="281.1077" gradientTransform="matrix(-0.9711 -0.2388 -0.2388 0.9711 -1392.6945 -281.3191)">
				<stop offset="0" style="stop-color:#CB236D"/>
				<stop offset="1" style="stop-color:#4C246D"/>
			</linearGradient>
			<path style="fill:url(#SVGID_00000046332824725073151980000001168526432285367168_);" d="M702.047,722.333
			c0,0,186.207-245.639,387.009-335.815c13.498-6.062,28.373,5.144,26.179,19.778
			C1100.567,504.146,1029.441,789.185,702.047,722.333z"/>
			<path style="opacity:0.5;fill:#FFFFFF;" d="M737.195,716.718c-0.959,0.359-0.53,1.786,0.469,1.559
			c36.813-8.365,188.675-62.287,317.377-246.594c0.413-0.592-0.431-1.26-0.894-0.706
			C1020.032,511.807,888.844,659.984,737.195,716.718z"/>
		</g>
		<g>

			<linearGradient id="SVGID_00000045600319536866245330000002774228737825025411_" gradientUnits="userSpaceOnUse" x1="364.6747" y1="217.7491" x2="346.6749" y2="33.7492">
				<stop offset="0" style="stop-color:#A737D5"/>
				<stop offset="1" style="stop-color:#EF497A"/>
			</linearGradient>
			<path style="fill:url(#SVGID_00000045600319536866245330000002774228737825025411_);" d="M417.141,412.425
			c0,0,25.436-193.882-25.013-324.093c-3.391-8.753-15.101-10.325-20.633-2.741C334.501,136.299,239.555,296.671,417.141,412.425z" />
			<path style="opacity:0.5;fill:#FFFFFF;" d="M403.778,394.224c0.273,0.59-0.557,1.042-0.906,0.495
			c-12.889-20.185-57.405-112.216-33.35-252.781c0.077-0.451,0.756-0.377,0.718,0.08
			C367.44,175.655,360.611,301.018,403.778,394.224z"/>
		</g>
		<g>

			<linearGradient id="SVGID_00000112619156736676733840000015632939723825154454_" gradientUnits="userSpaceOnUse" x1="21.9638" y1="303.937" x2="256.5245" y2="497.3469" gradientTransform="matrix(0.9995 -0.0329 0.0329 0.9995 71.3169 -18.3376)">
				<stop offset="0" style="stop-color:#CB236D"/>
				<stop offset="1" style="stop-color:#4C246D"/>
			</linearGradient>
			<path style="fill:url(#SVGID_00000112619156736676733840000015632939723825154454_);" d="M626.144,735.316
			c0,0-186.372-395.441-438.572-579.437c-16.954-12.369-40.879-1.18-42.125,19.769C137.115,315.727,152.248,732.103,626.144,735.316
			z"/>
			<path style="opacity:0.5;fill:#FFFFFF;" d="M579.018,717.221c1.226,0.779,0.212,2.633-1.107,2.026
			c-48.63-22.399-243.547-141.743-368.106-435.22c-0.4-0.943,0.967-1.622,1.447-0.718
			C246.621,349.967,385.22,594.038,579.018,717.221z"/>
		</g>
		<g>

			<linearGradient id="SVGID_00000172434232141905067380000002046275214641890463_" gradientUnits="userSpaceOnUse" x1="-743.2292" y1="767.4728" x2="-379.2766" y2="767.4728" gradientTransform="matrix(0.9542 -0.2993 0.2993 0.9542 579.8897 -280.9014)">
				<stop offset="0" style="stop-color:#A737D5"/>
				<stop offset="1" style="stop-color:#EF497A"/>
			</linearGradient>
			<path style="fill:url(#SVGID_00000172434232141905067380000002046275214641890463_);" d="M50.389,511.438
			c-1.913-0.487-1.856-3.219,0.08-3.604c30.9-6.138,145.311-21.798,258.283,52.927c103.365,68.37,164.684,133.27,186.52,158.333
			c4.318,4.956,1.707,12.73-4.729,14.066c-38.147,7.919-146.122,24.504-208.948-24.869
			C206.518,649.291,141.669,534.674,50.389,511.438z"/>
			<path style="opacity:0.5;fill:#FFFFFF;" d="M154.431,535.81c0,0,108.806,6.199,333.344,186.638
			C487.775,722.447,252.511,553.064,154.431,535.81z"/>
		</g>
		<g>

			<linearGradient id="SVGID_00000121251776732971502900000003463055926461878457_" gradientUnits="userSpaceOnUse" x1="904.0479" y1="85.7875" x2="85.8972" y2="1204.2711">
				<stop offset="0" style="stop-color:#FDF53F"/>
				<stop offset="1" style="stop-color:#D93C65"/>
			</linearGradient>
			<circle style="fill:url(#SVGID_00000121251776732971502900000003463055926461878457_);" cx="657.017" cy="423.5" r="320.5"/>
			<defs>
				<filter id="Adobe_OpacityMaskFilter" filterUnits="userSpaceOnUse" x="404.906" y="171.389" width="504.222" height="504.222">
					<feFlood style="flood-color:white;flood-opacity:1" result="back"/>
					<feBlend in="SourceGraphic" in2="back" mode="normal"/>
				</filter>
			</defs>

			<mask maskUnits="userSpaceOnUse" x="404.906" y="171.389" width="504.222" height="504.222" id="SVGID_00000101068357084100131790000007469261812564684167_">
				<g style="filter:url(#Adobe_OpacityMaskFilter);">
					<defs>

						<filter id="Adobe_OpacityMaskFilter_00000096052547059268420240000014829989110401512120_" filterUnits="userSpaceOnUse" x="404.906" y="171.389" width="504.222" height="504.222">
							<feFlood style="flood-color:white;flood-opacity:1" result="back"/>
							<feBlend in="SourceGraphic" in2="back" mode="normal"/>
						</filter>
					</defs>

					<mask maskUnits="userSpaceOnUse" x="404.906" y="171.389" width="504.222" height="504.222" id="SVGID_00000101068357084100131790000007469261812564684167_">
						<g style="filter:url(#Adobe_OpacityMaskFilter_00000096052547059268420240000014829989110401512120_);">
						</g>
					</mask>

					<linearGradient id="SVGID_00000067235555224534024420000017042271459146825365_" gradientUnits="userSpaceOnUse" x1="506.0106" y1="588.8607" x2="1036.2808" y2="8.1855">
						<stop offset="0" style="stop-color:#000000"/>
						<stop offset="1" style="stop-color:#FFFFFF"/>
					</linearGradient>

					<circle style="mask:url(#SVGID_00000101068357084100131790000007469261812564684167_);fill:url(#SVGID_00000067235555224534024420000017042271459146825365_);" cx="657.017" cy="423.5" r="252.111"/>
				</g>
			</mask>

			<linearGradient id="SVGID_00000170994184329502015390000005665191548014163121_" gradientUnits="userSpaceOnUse" x1="506.0106" y1="588.8607" x2="1036.2808" y2="8.1855">
				<stop offset="0" style="stop-color:#FDF53F"/>
				<stop offset="1" style="stop-color:#FFFFFF"/>
			</linearGradient>
			<circle style="fill:url(#SVGID_00000170994184329502015390000005665191548014163121_);" cx="657.017" cy="423.5" r="252.111"/>
			<g>
				<g style="opacity:0.56;">
					<path style="fill:#FFFFFF;" d="M935.726,429.603c-0.022,0-0.044,0-0.065,0c-1.656-0.036-2.971-1.407-2.935-3.064
					c0.042-1.974,0.063-3.953,0.063-5.936c0-1.657,1.343-3,3-3c1.657,0,3,1.343,3,3c0,2.027-0.021,4.048-0.065,6.064
					C938.689,428.301,937.353,429.603,935.726,429.603z"/>
					<path style="fill:#FFFFFF;" d="M659.915,699.476c-0.865,0-1.729-0.004-2.591-0.012c-1.657-0.015-2.988-1.371-2.973-3.027
					c0.015-1.647,1.355-2.973,3-2.973c0.009,0,0.018,0,0.028,0c3.93,0.036,7.91-0.013,11.816-0.144
					c1.637-0.046,3.044,1.242,3.099,2.898c0.055,1.656-1.243,3.043-2.898,3.099C666.263,699.422,663.073,699.475,659.915,699.476z
					 M681.215,698.666c-1.553,0-2.868-1.197-2.988-2.772c-0.126-1.652,1.111-3.094,2.763-3.22c3.912-0.299,7.866-0.687,11.754-1.153
					c1.648-0.202,3.139,0.977,3.336,2.621c0.197,1.645-0.976,3.139-2.621,3.336c-3.974,0.477-8.016,0.873-12.012,1.178
					C681.37,698.663,681.292,698.666,681.215,698.666z M704.921,695.822c-1.443,0-2.716-1.045-2.957-2.515
					c-0.268-1.635,0.84-3.178,2.475-3.446c3.866-0.634,7.772-1.362,11.61-2.165c1.625-0.341,3.212,0.701,3.551,2.322
					c0.339,1.622-0.701,3.211-2.322,3.551c-3.923,0.82-7.916,1.565-11.867,2.213C705.246,695.809,705.082,695.822,704.921,695.822z
					 M728.293,690.935c-1.339,0-2.559-0.902-2.905-2.259c-0.41-1.605,0.56-3.239,2.166-3.648c3.795-0.968,7.623-2.034,11.378-3.168
					c1.587-0.478,3.26,0.419,3.739,2.005c0.479,1.586-0.419,3.26-2.005,3.739c-3.837,1.159-7.75,2.248-11.63,3.237
					C728.788,690.905,728.539,690.935,728.293,690.935z M751.153,684.032c-1.239,0-2.398-0.773-2.831-2.009
					c-0.547-1.563,0.276-3.275,1.84-3.823c3.685-1.291,7.396-2.682,11.03-4.135c1.54-0.614,3.284,0.134,3.899,1.672
					c0.615,1.538-0.133,3.284-1.672,3.899c-3.714,1.485-7.508,2.908-11.274,4.227C751.817,683.977,751.482,684.032,751.153,684.032z
					 M773.271,675.188c-1.143,0-2.235-0.657-2.736-1.767c-0.682-1.51-0.01-3.287,1.5-3.969c3.567-1.61,7.146-3.319,10.638-5.081
					c1.48-0.748,3.284-0.152,4.03,1.327c0.747,1.479,0.152,3.284-1.327,4.03c-3.569,1.801-7.227,3.548-10.872,5.193
					C774.102,675.102,773.683,675.188,773.271,675.188z M794.551,664.45c-1.051,0-2.07-0.553-2.62-1.534
					c-0.81-1.445-0.294-3.274,1.151-4.084c3.415-1.913,6.835-3.927,10.165-5.987c1.411-0.872,3.258-0.435,4.129,0.973
					c0.872,1.409,0.436,3.258-0.973,4.129c-3.404,2.105-6.898,4.164-10.388,6.119C795.551,664.326,795.047,664.45,794.551,664.45z
					 M814.835,651.905c-0.961,0-1.903-0.46-2.484-1.313c-0.932-1.371-0.576-3.236,0.794-4.168c3.234-2.199,6.47-4.502,9.616-6.845
					c1.329-0.991,3.208-0.715,4.198,0.614c0.99,1.329,0.715,3.208-0.614,4.198c-3.215,2.395-6.521,4.748-9.826,6.996
					C816.002,651.736,815.415,651.905,814.835,651.905z M833.971,637.65c-0.872,0-1.735-0.377-2.328-1.106
					c-1.046-1.285-0.853-3.174,0.432-4.22c3.043-2.478,6.069-5.052,8.995-7.651c1.239-1.101,3.135-0.989,4.235,0.25
					c1.101,1.238,0.988,3.135-0.251,4.235c-2.99,2.656-6.082,5.287-9.191,7.818C835.307,637.429,834.636,637.65,833.971,637.65z
					 M851.815,621.795c-0.784,0-1.567-0.305-2.155-0.913c-1.153-1.19-1.123-3.089,0.067-4.242c2.818-2.73,5.613-5.555,8.308-8.399
					c1.14-1.203,3.039-1.254,4.241-0.114c1.203,1.14,1.254,3.038,0.114,4.241c-2.753,2.906-5.609,5.793-8.488,8.582
					C853.319,621.515,852.567,621.795,851.815,621.795z M868.238,604.459c-0.698,0-1.398-0.242-1.966-0.735
					c-1.25-1.087-1.383-2.982-0.297-4.232c2.57-2.957,5.112-6.014,7.558-9.085c1.031-1.296,2.919-1.511,4.216-0.479
					c1.296,1.032,1.51,2.919,0.479,4.216c-2.499,3.139-5.097,6.262-7.723,9.284C869.911,604.109,869.077,604.459,868.238,604.459z
					 M883.115,585.768c-0.612,0-1.23-0.186-1.763-0.574c-1.34-0.975-1.636-2.851-0.661-4.191c2.313-3.179,4.584-6.445,6.748-9.707
					c0.916-1.38,2.778-1.758,4.158-0.841c1.38,0.916,1.757,2.778,0.841,4.158c-2.212,3.333-4.532,6.671-6.896,9.92
					C884.956,585.339,884.042,585.768,883.115,585.768z M896.331,565.854c-0.527,0-1.062-0.139-1.546-0.431
					c-1.419-0.856-1.876-2.699-1.021-4.118c2.03-3.366,4.01-6.818,5.886-10.258c0.793-1.455,2.616-1.992,4.07-1.198
					c1.455,0.793,1.991,2.615,1.198,4.07c-1.918,3.517-3.941,7.044-6.015,10.484C898.339,565.336,897.348,565.854,896.331,565.854z
					 M907.778,544.86c-0.443,0-0.893-0.099-1.318-0.307c-1.488-0.729-2.103-2.526-1.374-4.014c1.729-3.526,3.402-7.138,4.975-10.735
					c0.664-1.518,2.434-2.21,3.951-1.547c1.518,0.664,2.211,2.433,1.547,3.951c-1.607,3.677-3.318,7.368-5.085,10.973
					C909.953,544.243,908.887,544.86,907.778,544.86z M917.362,522.94c-0.359,0-0.725-0.065-1.08-0.203
					c-1.546-0.597-2.315-2.333-1.718-3.879c1.414-3.663,2.767-7.409,4.022-11.135c0.528-1.57,2.23-2.417,3.8-1.886
					c1.57,0.529,2.415,2.23,1.886,3.8c-1.282,3.809-2.666,7.638-4.111,11.382C919.702,522.21,918.566,522.94,917.362,522.94z
					 M925.002,500.252c-0.275,0-0.555-0.039-0.833-0.119c-1.592-0.459-2.51-2.122-2.051-3.714c1.087-3.77,2.106-7.611,3.027-11.417
					c0.39-1.61,2.011-2.597,3.622-2.21c1.61,0.39,2.6,2.011,2.21,3.622c-0.941,3.89-1.982,7.816-3.094,11.669
					C927.504,499.397,926.305,500.252,925.002,500.252z M930.62,477.044c-0.192,0-0.386-0.019-0.581-0.057
					c-1.625-0.319-2.685-1.896-2.366-3.522c0.754-3.84,1.435-7.755,2.022-11.636c0.249-1.639,1.781-2.764,3.416-2.517
					c1.638,0.249,2.765,1.778,2.517,3.416c-0.602,3.966-1.297,7.968-2.067,11.893C933.279,476.052,932.024,477.044,930.62,477.044z
					 M934.198,453.436c-0.107,0-0.216-0.005-0.325-0.017c-1.647-0.177-2.839-1.656-2.662-3.304c0.419-3.893,0.758-7.853,1.01-11.768
					c0.105-1.653,1.527-2.914,3.185-2.802c1.654,0.106,2.908,1.532,2.802,3.186c-0.256,4-0.604,8.046-1.031,12.025
					C937.012,452.295,935.711,453.436,934.198,453.436z"/>
					<path style="fill:#FFFFFF;" d="M645.29,699.095c-0.053,0-0.106-0.001-0.16-0.004c-2.023-0.106-4.041-0.233-6.052-0.382
					c-1.652-0.123-2.893-1.561-2.77-3.213c0.122-1.652,1.557-2.895,3.213-2.77c1.968,0.146,3.943,0.27,5.923,0.373
					c1.654,0.087,2.925,1.499,2.839,3.153C648.2,697.853,646.875,699.095,645.29,699.095z"/>
				</g>
				<g style="opacity:0.56;">
					<path style="fill:#FFFFFF;" d="M384.042,423.602c-1.657,0-3-1.343-3-3c0-2.026,0.021-4.048,0.064-6.065
					c0.036-1.657,1.442-2.96,3.063-2.935c1.656,0.036,2.971,1.407,2.936,3.063c-0.042,1.974-0.064,3.953-0.064,5.937
					C387.042,422.259,385.698,423.602,384.042,423.602z"/>
					<path style="fill:#FFFFFF;" d="M384.623,405.6c-0.065,0-0.13-0.002-0.196-0.006c-1.653-0.107-2.907-1.533-2.801-3.187
					c0.259-4.018,0.609-8.086,1.041-12.09c0.177-1.648,1.666-2.843,3.304-2.661c1.647,0.178,2.839,1.657,2.661,3.304
					c-0.423,3.919-0.766,7.9-1.019,11.833C387.511,404.38,386.191,405.6,384.623,405.6z M387.203,381.733
					c-0.15,0-0.302-0.011-0.455-0.035c-1.638-0.25-2.764-1.779-2.514-3.417c0.605-3.976,1.308-7.999,2.088-11.955
					c0.32-1.625,1.901-2.682,3.523-2.363c1.626,0.32,2.684,1.898,2.363,3.523c-0.763,3.872-1.451,7.808-2.043,11.698
					C389.938,380.669,388.66,381.733,387.203,381.733z M391.847,358.181c-0.235,0-0.473-0.027-0.712-0.086
					c-1.61-0.392-2.598-2.014-2.206-3.624c0.953-3.918,2.004-7.863,3.126-11.729c0.462-1.591,2.124-2.507,3.717-2.045
					c1.591,0.462,2.507,2.126,2.046,3.717c-1.098,3.782-2.126,7.642-3.059,11.475C394.426,357.261,393.199,358.181,391.847,358.181z
					 M398.546,335.095c-0.319,0-0.644-0.051-0.962-0.159c-1.569-0.531-2.411-2.234-1.88-3.804c1.295-3.826,2.692-7.673,4.154-11.436
					c0.599-1.544,2.338-2.31,3.882-1.71c1.544,0.6,2.311,2.338,1.71,3.882c-1.429,3.681-2.796,7.445-4.063,11.188
					C400.964,334.307,399.797,335.095,398.546,335.095z M407.252,312.667c-0.403,0-0.813-0.082-1.206-0.255
					c-1.517-0.667-2.206-2.437-1.539-3.954c1.626-3.698,3.355-7.406,5.137-11.021c0.732-1.486,2.531-2.097,4.017-1.364
					c1.486,0.732,2.097,2.531,1.364,4.017c-1.744,3.537-3.435,7.165-5.026,10.783C409.506,311.997,408.406,312.667,407.252,312.667z
					 M417.885,291.098c-0.488,0-0.982-0.119-1.44-0.37c-1.453-0.797-1.984-2.621-1.188-4.073c1.939-3.536,3.984-7.076,6.077-10.524
					c0.858-1.416,2.704-1.868,4.121-1.008c1.416,0.859,1.868,2.704,1.008,4.121c-2.047,3.373-4.047,6.838-5.945,10.297
					C419.972,290.535,418.945,291.098,417.885,291.098z M430.353,270.551c-0.573,0-1.152-0.164-1.664-0.506
					c-1.378-0.92-1.749-2.784-0.828-4.161c2.242-3.355,4.585-6.704,6.965-9.951c0.98-1.336,2.856-1.625,4.193-0.646
					c1.336,0.98,1.625,2.857,0.647,4.193c-2.329,3.178-4.622,6.454-6.816,9.737C432.272,270.083,431.322,270.551,430.353,270.551z
					 M444.554,251.172c-0.658,0-1.321-0.215-1.874-0.659c-1.293-1.036-1.501-2.924-0.464-4.217c2.52-3.143,5.143-6.274,7.798-9.307
					c1.091-1.247,2.985-1.373,4.233-0.281c1.247,1.091,1.373,2.987,0.281,4.233c-2.598,2.967-5.165,6.032-7.631,9.107
					C446.304,250.788,445.433,251.172,444.554,251.172z M460.374,233.102c-0.745,0-1.491-0.275-2.072-0.83
					c-1.198-1.145-1.242-3.044-0.097-4.242c2.782-2.912,5.665-5.803,8.57-8.593c1.194-1.148,3.094-1.11,4.242,0.086
					c1.148,1.195,1.109,3.094-0.085,4.242c-2.843,2.73-5.665,5.56-8.387,8.411C461.955,232.792,461.165,233.102,460.374,233.102z
					 M477.69,216.476c-0.832,0-1.66-0.344-2.252-1.018c-1.095-1.244-0.975-3.139,0.269-4.234c3.018-2.657,6.139-5.288,9.277-7.818
					c1.29-1.04,3.178-0.837,4.219,0.452c1.04,1.29,0.837,3.178-0.452,4.219c-3.071,2.476-6.125,5.05-9.079,7.65
					C479.102,216.229,478.394,216.476,477.69,216.476z M496.37,201.412c-0.921,0-1.829-0.422-2.417-1.22
					c-0.983-1.333-0.699-3.212,0.634-4.195c3.237-2.387,6.573-4.736,9.915-6.983c1.375-0.926,3.239-0.56,4.163,0.815
					c0.925,1.375,0.56,3.239-0.815,4.163c-3.27,2.199-6.534,4.498-9.702,6.834C497.612,201.222,496.988,201.412,496.37,201.412z
					 M516.274,188.03c-1.011,0-1.997-0.511-2.563-1.436c-0.864-1.413-0.418-3.26,0.995-4.124c3.436-2.1,6.961-4.15,10.478-6.094
					c1.45-0.802,3.275-0.276,4.077,1.174c0.802,1.45,0.276,3.275-1.174,4.077c-3.441,1.902-6.89,3.908-10.252,5.962
					C517.347,187.888,516.807,188.03,516.274,188.03z M537.253,176.433c-1.103,0-2.164-0.61-2.688-1.665
					c-0.738-1.484-0.133-3.285,1.35-4.022c3.603-1.792,7.292-3.526,10.963-5.156c1.514-0.671,3.287,0.01,3.959,1.525
					c0.672,1.514-0.011,3.287-1.525,3.959c-3.591,1.594-7.199,3.29-10.725,5.043C538.157,176.331,537.702,176.433,537.253,176.433z
					 M559.146,166.714c-1.198,0-2.33-0.722-2.794-1.905c-0.605-1.542,0.154-3.283,1.696-3.889c3.756-1.475,7.589-2.883,11.394-4.186
					c1.57-0.538,3.274,0.298,3.81,1.866c0.537,1.567-0.298,3.273-1.865,3.81c-3.722,1.275-7.472,2.653-11.146,4.096
					C559.881,166.647,559.51,166.714,559.146,166.714z M758.706,165.946c-0.357,0-0.721-0.064-1.074-0.2
					c-3.684-1.413-7.445-2.763-11.181-4.011c-1.571-0.525-2.42-2.224-1.895-3.796c0.525-1.571,2.227-2.419,3.796-1.895
					c3.818,1.275,7.664,2.655,11.429,4.1c1.547,0.593,2.32,2.329,1.726,3.876C761.05,165.213,759.913,165.946,758.706,165.946z
					 M581.854,158.929c-1.296,0-2.492-0.847-2.877-2.154c-0.468-1.589,0.441-3.257,2.031-3.725
					c3.869-1.139,7.811-2.206,11.716-3.172c1.607-0.399,3.235,0.583,3.632,2.192c0.398,1.608-0.583,3.235-2.192,3.632
					c-3.82,0.945-7.676,1.989-11.462,3.104C582.42,158.889,582.135,158.929,581.854,158.929z M735.932,158.335
					c-0.273,0-0.551-0.038-0.826-0.117c-3.795-1.085-7.661-2.099-11.491-3.016c-1.611-0.385-2.605-2.004-2.22-3.615
					c0.385-1.612,2.003-2.603,3.615-2.22c3.915,0.936,7.867,1.974,11.745,3.083c1.593,0.455,2.515,2.116,2.06,3.709
					C738.438,157.476,737.237,158.335,735.932,158.335z M605.156,153.164c-1.399,0-2.65-0.984-2.938-2.408
					c-0.327-1.624,0.724-3.206,2.349-3.533c3.943-0.794,7.963-1.513,11.947-2.135c1.637-0.258,3.172,0.863,3.427,2.501
					c0.256,1.637-0.864,3.171-2.501,3.427c-3.898,0.609-7.831,1.312-11.689,2.089C605.552,153.144,605.352,153.164,605.156,153.164z
					 M712.576,152.749c-0.189,0-0.38-0.018-0.573-0.055c-3.869-0.747-7.809-1.42-11.71-1.999c-1.639-0.243-2.771-1.769-2.528-3.408
					c0.244-1.639,1.772-2.769,3.408-2.528c3.988,0.591,8.015,1.279,11.969,2.043c1.627,0.314,2.69,1.888,2.376,3.515
					C715.24,151.752,713.984,152.749,712.576,152.749z M628.873,149.456c-1.507,0-2.806-1.134-2.978-2.667
					c-0.184-1.646,1.001-3.13,2.648-3.315c3.991-0.447,8.057-0.813,12.085-1.089c1.652-0.107,3.085,1.135,3.198,2.788
					c0.113,1.653-1.135,3.085-2.788,3.198c-3.942,0.27-7.922,0.628-11.828,1.065C629.097,149.45,628.984,149.456,628.873,149.456z
					 M688.818,149.224c-0.104,0-0.208-0.005-0.314-0.016c-3.915-0.407-7.899-0.735-11.842-0.974c-1.654-0.1-2.914-1.522-2.814-3.176
					c0.1-1.654,1.509-2.902,3.176-2.813c4.028,0.244,8.1,0.579,12.101,0.995c1.648,0.171,2.845,1.646,2.673,3.294
					C691.638,148.077,690.336,149.224,688.818,149.224z M652.826,147.818c-1.622,0-2.957-1.294-2.998-2.924
					c-0.042-1.656,1.267-3.033,2.923-3.075c4.022-0.102,8.11-0.119,12.141-0.047c1.657,0.029,2.976,1.395,2.947,3.052
					c-0.029,1.656-1.375,2.983-3.052,2.947c-3.945-0.069-7.948-0.054-11.884,0.046C652.877,147.818,652.851,147.818,652.826,147.818
					z"/>
					<path style="fill:#FFFFFF;" d="M775.381,172.983c-0.421,0-0.848-0.089-1.255-0.276c-1.794-0.828-3.598-1.637-5.412-2.426
					c-1.519-0.661-2.215-2.429-1.554-3.948c0.662-1.52,2.428-2.214,3.948-1.554c1.854,0.807,3.698,1.634,5.532,2.48
					c1.504,0.694,2.161,2.477,1.467,3.981C777.601,172.337,776.516,172.983,775.381,172.983z"/>
				</g>
			</g>
			<g>

				<linearGradient id="SVGID_00000074422634207095641090000016754370200393259914_" gradientUnits="userSpaceOnUse" x1="487.6416" y1="582.5519" x2="772.1398" y2="204.6891">
					<stop offset="0" style="stop-color:#CB236D"/>
					<stop offset="1" style="stop-color:#4C246D"/>
				</linearGradient>
				<path style="fill:url(#SVGID_00000074422634207095641090000016754370200393259914_);" d="M603.021,217.174h166.574
				c7.915,0,13.082,8.305,9.585,15.406L714.35,364.203c-4.892,9.932,2.336,21.549,13.407,21.549h35.094
				c10.125,0,16.095,11.359,10.353,19.698L589.082,672.866c-3.678,5.342-12.055,2.31-11.462-4.149l19.444-211.724
				c0.535-5.828-4.052-10.856-9.905-10.856h-34.068c-12.876,0-22.266-12.187-18.982-24.638l50.057-189.799
				C586.423,223.14,594.166,217.174,603.021,217.174z"/>

				<linearGradient id="SVGID_00000033339691639163604540000006684374259018815618_" gradientUnits="userSpaceOnUse" x1="768.6028" y1="176.9759" x2="374.935" y2="793.1507">
					<stop offset="0" style="stop-color:#CB236D"/>
					<stop offset="1" style="stop-color:#4C246D"/>
				</linearGradient>
				<path style="fill:url(#SVGID_00000033339691639163604540000006684374259018815618_);" d="M583.976,669.816
				c-0.187,0-0.413-0.093-0.526-0.217c-0.031-0.034-0.083-0.091-0.059-0.351l19.444-211.723c0.404-4.397-1.071-8.789-4.047-12.05
				c-2.975-3.262-7.214-5.132-11.629-5.132h-34.068c-4.325,0-8.32-1.965-10.96-5.392c-2.64-3.426-3.521-7.79-2.418-11.972
				l50.057-189.799c1.586-6.011,7.035-10.209,13.252-10.209h166.573c2.452,0,3.72,1.613,4.151,2.306
				c0.431,0.693,1.318,2.544,0.235,4.743l-64.829,131.622c-3.188,6.473-2.816,13.995,0.996,20.122
				c3.812,6.127,10.395,9.784,17.611,9.784h35.094c2.563,0,4.805,1.354,5.997,3.623c1.193,2.268,1.036,4.882-0.417,6.993
				L584.309,669.58C584.146,669.816,584.071,669.816,583.976,669.816z"/>
			</g>
			<path style="opacity:0.56;fill:#FFFFFF;" d="M596.193,635.613c-0.336,0-0.676-0.057-1.006-0.177
			c-1.264-0.458-2.061-1.713-1.937-3.052l4.961-54.021c0.117-1.275,1.24-2.214,2.521-2.096c1.275,0.117,2.214,1.246,2.096,2.521
			l-4.373,47.622l83.103-120.696c0.725-1.055,2.168-1.321,3.224-0.595c1.054,0.726,1.321,2.17,0.595,3.224l-86.748,125.99
			C598.066,635.152,597.145,635.613,596.193,635.613z"/>
			<path style="opacity:0.56;fill:#FFFFFF;" d="M571.113,351.695c-0.196,0-0.395-0.025-0.593-0.077
			c-1.238-0.327-1.976-1.595-1.65-2.833l29.866-113.241c0.513-1.944,2.275-3.301,4.286-3.301h30.038c1.28,0,2.318,1.038,2.318,2.318
			c0,1.28-1.038,2.318-2.318,2.318h-29.88l-29.825,113.088C573.079,351.007,572.14,351.695,571.113,351.695z"/>
		</g>
		<g>
			<g>

				<linearGradient id="SVGID_00000001658615232594246150000001106521138663984772_" gradientUnits="userSpaceOnUse" x1="250.1571" y1="590.1866" x2="272.7863" y2="590.1866">
					<stop offset="0" style="stop-color:#2B3582"/>
					<stop offset="1" style="stop-color:#150E42"/>
				</linearGradient>
				<polygon style="fill:url(#SVGID_00000001658615232594246150000001106521138663984772_);" points="250.157,728.837 
				256.742,445.033 272.786,445.033 272.786,735.341 			"/>

				<linearGradient id="SVGID_00000005962366932366411820000015129550270242585509_" gradientUnits="userSpaceOnUse" x1="241.9602" y1="736.1782" x2="281.6594" y2="736.1782">
					<stop offset="0" style="stop-color:#2B3582"/>
					<stop offset="1" style="stop-color:#150E42"/>
				</linearGradient>
				<path style="fill:url(#SVGID_00000005962366932366411820000015129550270242585509_);" d="M281.659,736.178
				c0,4.483-2.125,7.822-4.747,7.822h-30.206c-2.621,0-4.747-3.339-4.747-7.822s2.125-7.822,4.747-7.822h30.206
				C279.534,728.356,281.659,731.696,281.659,736.178z"/>
			</g>
			<g>

				<linearGradient id="SVGID_00000041263548281544852870000008736891715476059533_" gradientUnits="userSpaceOnUse" x1="202.1021" y1="525.5046" x2="340.843" y2="333.4022">
					<stop offset="0" style="stop-color:#53D8FF"/>
					<stop offset="1" style="stop-color:#3840F7"/>
				</linearGradient>
				<path style="fill:url(#SVGID_00000041263548281544852870000008736891715476059533_);" d="M351.556,301.602
				c-3.332-16.391-58.245,78.389-76.48,101.705c-18.235,23.316-4.01,30.639-4.01,30.639l2.387,2.259
				c0.003,0.001,0.007,0.003,0.011,0.004c7.2,1.409,14.574-1.439,18.126-7.762C308.444,398.439,354.276,314.985,351.556,301.602z"/>

				<linearGradient id="SVGID_00000008862876087401590360000018206126988768252050_" gradientUnits="userSpaceOnUse" x1="272.8022" y1="576.5657" x2="411.5427" y2="384.4638">
					<stop offset="0" style="stop-color:#53D8FF"/>
					<stop offset="1" style="stop-color:#3840F7"/>
				</linearGradient>
				<path style="fill:url(#SVGID_00000008862876087401590360000018206126988768252050_);" d="M351.072,588.862
				c15.982,4.934-40.866-88.698-52.585-115.879c-11.719-27.181-24.784-17.999-24.784-17.999l-2.946,1.222
				c-0.003,0.003-0.005,0.005-0.008,0.008c-5.149,5.108-5.906,13.269-2.06,19.417C286.942,504.81,338.023,584.833,351.072,588.862z" />

				<linearGradient id="SVGID_00000022525374398867960810000011028816689839312275_" gradientUnits="userSpaceOnUse" x1="155.2703" y1="491.6818" x2="294.0114" y2="299.579">
					<stop offset="0" style="stop-color:#53D8FF"/>
					<stop offset="1" style="stop-color:#3840F7"/>
				</linearGradient>
				<path style="fill:url(#SVGID_00000022525374398867960810000011028816689839312275_);" d="M101.598,472.318
				c-14.042-9.089,94.246-25.594,122.611-34.055c28.365-8.46,29.107,7.453,29.107,7.453l0.351,3.043c0,0.004,0,0.008,0,0.012
				c0,7.227-5.782,13.046-12.965,14.043C206.611,467.545,113.063,479.737,101.598,472.318z"/>
				<g>

					<linearGradient id="SVGID_00000166661697600979000590000008384623386094038437_" gradientUnits="userSpaceOnUse" x1="-243.9758" y1="-899.845" x2="-210.5969" y2="-893.0364" gradientTransform="matrix(0.9359 0.3523 -0.3523 0.9359 163.406 1364.1484)">
						<stop offset="0" style="stop-color:#2B3582"/>
						<stop offset="1" style="stop-color:#150E42"/>
					</linearGradient>
					<path style="fill:url(#SVGID_00000166661697600979000590000008384623386094038437_);" d="M282.443,451.097
					c-3.314,8.802-13.136,13.251-21.939,9.937c-8.802-3.314-13.251-13.136-9.937-21.938c3.314-8.802,13.136-13.251,21.938-9.938
					C281.307,432.473,285.756,442.295,282.443,451.097z"/>

					<linearGradient id="SVGID_00000161616882677491678160000009802294358825680525_" gradientUnits="userSpaceOnUse" x1="-238.7809" y1="-898.7311" x2="-215.6557" y2="-894.014" gradientTransform="matrix(0.9359 0.3523 -0.3523 0.9359 163.406 1364.1484)">
						<stop offset="0" style="stop-color:#B37CFF"/>
						<stop offset="1" style="stop-color:#F895E7"/>
					</linearGradient>
					<path style="fill:url(#SVGID_00000161616882677491678160000009802294358825680525_);" d="M266.531,456.984
					c-1.379,0-2.78-0.244-4.145-0.757c-2.95-1.11-5.29-3.303-6.591-6.174c-1.3-2.871-1.405-6.076-0.294-9.026
					c2.293-6.089,9.112-9.177,15.201-6.885c2.95,1.11,5.29,3.303,6.591,6.174c1.3,2.871,1.405,6.077,0.294,9.026
					C275.809,454.066,271.305,456.984,266.531,456.984z M266.539,434.379c-1.516,0-3.028,0.323-4.451,0.968
					c-2.627,1.19-4.635,3.332-5.651,6.033c-1.016,2.699-0.92,5.633,0.27,8.261c1.19,2.628,3.333,4.635,6.032,5.651
					c5.573,2.098,11.814-0.729,13.913-6.302c1.016-2.7,0.92-5.633-0.27-8.261c-1.19-2.627-3.333-4.634-6.032-5.651
					C269.111,434.611,267.824,434.379,266.539,434.379z"/>
				</g>
			</g>
		</g>
		<g>
			<g>

				<linearGradient id="SVGID_00000181082872785850199120000015358486539368550784_" gradientUnits="userSpaceOnUse" x1="398.2641" y1="545.6279" x2="427.4489" y2="545.6279">
					<stop offset="0" style="stop-color:#2B3582"/>
					<stop offset="1" style="stop-color:#150E42"/>
				</linearGradient>
				<polygon style="fill:url(#SVGID_00000181082872785850199120000015358486539368550784_);" points="398.264,724.444 
				406.757,358.424 427.449,358.424 427.449,732.832 			"/>

				<linearGradient id="SVGID_00000151533782647326228290000007975558507789349821_" gradientUnits="userSpaceOnUse" x1="387.6926" y1="733.9122" x2="438.8924" y2="733.9122">
					<stop offset="0" style="stop-color:#2B3582"/>
					<stop offset="1" style="stop-color:#150E42"/>
				</linearGradient>
				<path style="fill:url(#SVGID_00000151533782647326228290000007975558507789349821_);" d="M438.892,733.912
				c0,5.781-2.741,10.088-6.122,10.088h-38.956c-3.381,0-6.122-4.307-6.122-10.088c0-5.781,2.741-10.088,6.122-10.088h38.956
				C436.152,723.825,438.892,728.131,438.892,733.912z"/>
			</g>
			<g>

				<linearGradient id="SVGID_00000091016353878642568790000000319654154594528440_" gradientUnits="userSpaceOnUse" x1="437.7706" y1="212.1193" x2="662.1044" y2="478.681">
					<stop offset="0" style="stop-color:#53D8FF"/>
					<stop offset="1" style="stop-color:#3840F7"/>
				</linearGradient>
				<path style="fill:url(#SVGID_00000091016353878642568790000000319654154594528440_);" d="M529.038,173.442
				c-4.298-21.14-75.118,101.098-98.636,131.168c-23.518,30.07-5.172,39.515-5.172,39.515l3.078,2.913
				c0.005,0.002,0.009,0.003,0.014,0.005c9.285,1.817,18.796-1.856,23.376-10.01C473.436,298.332,532.546,190.702,529.038,173.442z" />

				<linearGradient id="SVGID_00000160165179056533867160000014210346421717598106_" gradientUnits="userSpaceOnUse" x1="344.4452" y1="290.6608" x2="568.7782" y2="557.2215">
					<stop offset="0" style="stop-color:#53D8FF"/>
					<stop offset="1" style="stop-color:#3840F7"/>
				</linearGradient>
				<path style="fill:url(#SVGID_00000160165179056533867160000014210346421717598106_);" d="M528.413,543.919
				c20.612,6.364-52.705-114.393-67.818-149.448c-15.113-35.056-31.964-23.213-31.964-23.213l-3.799,1.576
				c-0.004,0.004-0.007,0.007-0.01,0.01c-6.641,6.588-7.617,17.113-2.657,25.043C445.705,435.518,511.585,538.723,528.413,543.919z" />

				<linearGradient id="SVGID_00000085246745798491421130000009003270043261419420_" gradientUnits="userSpaceOnUse" x1="279.5306" y1="345.2918" x2="503.8642" y2="611.8533">
					<stop offset="0" style="stop-color:#53D8FF"/>
					<stop offset="1" style="stop-color:#3840F7"/>
				</linearGradient>
				<path style="fill:url(#SVGID_00000085246745798491421130000009003270043261419420_);" d="M206.668,393.613
				c-18.11-11.722,121.548-33.009,158.13-43.92c36.582-10.911,37.539,9.611,37.539,9.611l0.452,3.925c0,0.005,0,0.01,0,0.015
				c0,9.32-7.457,16.825-16.721,18.111C342.102,387.457,221.454,403.182,206.668,393.613z"/>
				<g>

					<linearGradient id="SVGID_00000065062639121986405830000004872225377335067777_" gradientUnits="userSpaceOnUse" x1="-136.2736" y1="-1035.7144" x2="-93.225" y2="-1026.9335" gradientTransform="matrix(0.9359 0.3523 -0.3523 0.9359 163.406 1364.1484)">
						<stop offset="0" style="stop-color:#2B3582"/>
						<stop offset="1" style="stop-color:#150E42"/>
					</linearGradient>
					<path style="fill:url(#SVGID_00000065062639121986405830000004872225377335067777_);" d="M439.902,366.245
					c-4.274,11.352-16.942,17.09-28.294,12.816c-11.352-4.274-17.09-16.942-12.816-28.294c4.274-11.352,16.941-17.09,28.293-12.816
					C438.438,342.225,444.176,354.893,439.902,366.245z"/>

					<linearGradient id="SVGID_00000172405547446994365630000001920558112362446743_" gradientUnits="userSpaceOnUse" x1="-129.4317" y1="-1034.2505" x2="-99.8879" y2="-1028.2242" gradientTransform="matrix(0.9359 0.3523 -0.3523 0.9359 163.406 1364.1484)">
						<stop offset="0" style="stop-color:#B37CFF"/>
						<stop offset="1" style="stop-color:#F895E7"/>
					</linearGradient>
					<path style="fill:url(#SVGID_00000172405547446994365630000001920558112362446743_);" d="M419.405,373.701
					c-1.793,0-3.59-0.324-5.318-0.975c-7.778-2.929-11.724-11.639-8.795-19.417c2.928-7.778,11.637-11.725,19.418-8.795
					c3.767,1.419,6.758,4.22,8.419,7.887c1.661,3.668,1.795,7.762,0.376,11.53c-1.418,3.768-4.219,6.758-7.887,8.419
					C423.633,373.249,421.522,373.701,419.405,373.701z M419.415,344.545c-5.693,0-11.065,3.48-13.187,9.115
					c-2.734,7.262,0.95,15.395,8.212,18.129c3.518,1.324,7.341,1.199,10.766-0.352c3.424-1.551,6.039-4.343,7.364-7.861
					c2.734-7.262-0.95-15.395-8.212-18.129C422.73,344.836,421.059,344.545,419.415,344.545z"/>
				</g>
			</g>
		</g>
		<g>
			<g>

				<linearGradient id="SVGID_00000010281243949778867250000016458410604191650983_" gradientUnits="userSpaceOnUse" x1="850.7898" y1="622.0927" x2="868.7249" y2="622.0927">
					<stop offset="0" style="stop-color:#2B3582"/>
					<stop offset="1" style="stop-color:#150E42"/>
				</linearGradient>
				<polygon style="fill:url(#SVGID_00000010281243949778867250000016458410604191650983_);" points="850.79,731.982 
				856.009,507.048 868.725,507.048 868.725,737.137 			"/>

				<linearGradient id="SVGID_00000128472156331444069010000013651325669036358832_" gradientUnits="userSpaceOnUse" x1="844.2932" y1="737.8007" x2="875.7574" y2="737.8007">
					<stop offset="0" style="stop-color:#2B3582"/>
					<stop offset="1" style="stop-color:#150E42"/>
				</linearGradient>
				<path style="fill:url(#SVGID_00000128472156331444069010000013651325669036358832_);" d="M875.757,737.801
				c0,3.553-1.684,6.199-3.762,6.199h-23.94c-2.078,0-3.762-2.647-3.762-6.199c0-3.553,1.684-6.199,3.762-6.199h23.94
				C874.073,731.601,875.757,734.248,875.757,737.801z"/>
			</g>
			<g>

				<linearGradient id="SVGID_00000101796052236956554080000011744978002029338540_" gradientUnits="userSpaceOnUse" x1="875.0681" y1="417.1387" x2="1012.9299" y2="580.9513">
					<stop offset="0" style="stop-color:#53D8FF"/>
					<stop offset="1" style="stop-color:#3840F7"/>
				</linearGradient>
				<path style="fill:url(#SVGID_00000101796052236956554080000011744978002029338540_);" d="M931.155,393.37
				c-2.641-12.991-46.163,62.129-60.616,80.608c-14.453,18.479-3.178,24.283-3.178,24.283l1.892,1.79
				c0.003,0.001,0.006,0.002,0.008,0.003c5.706,1.117,11.551-1.14,14.366-6.151C896.986,470.12,933.311,403.977,931.155,393.37z"/>

				<linearGradient id="SVGID_00000149361852008675180540000011038541352616476350_" gradientUnits="userSpaceOnUse" x1="817.7159" y1="465.4055" x2="955.5773" y2="629.2174">
					<stop offset="0" style="stop-color:#53D8FF"/>
					<stop offset="1" style="stop-color:#3840F7"/>
				</linearGradient>
				<path style="fill:url(#SVGID_00000149361852008675180540000011038541352616476350_);" d="M930.771,621.043
				c12.667,3.911-32.389-70.299-41.677-91.842c-9.288-21.543-19.643-14.265-19.643-14.265l-2.335,0.968
				c-0.002,0.002-0.004,0.004-0.007,0.006c-4.081,4.048-4.681,10.517-1.633,15.39C879.944,554.426,920.43,617.849,930.771,621.043z" />

				<linearGradient id="SVGID_00000127025352178881376660000004532888177821591185_" gradientUnits="userSpaceOnUse" x1="777.8234" y1="498.9783" x2="915.6853" y2="662.7908">
					<stop offset="0" style="stop-color:#53D8FF"/>
					<stop offset="1" style="stop-color:#3840F7"/>
				</linearGradient>
				<path style="fill:url(#SVGID_00000127025352178881376660000004532888177821591185_);" d="M733.047,528.673
				c-11.13-7.203,74.696-20.285,97.177-26.991c22.481-6.706,23.069,5.906,23.069,5.906l0.278,2.412c0,0.003,0,0.006,0,0.009
				c0,5.728-4.582,10.339-10.276,11.13C816.276,524.891,742.133,534.554,733.047,528.673z"/>
				<g>

					<linearGradient id="SVGID_00000106129396330744293170000015848838404926825876_" gradientUnits="userSpaceOnUse" x1="340.274" y1="-1051.5153" x2="366.729" y2="-1046.119" gradientTransform="matrix(0.9359 0.3523 -0.3523 0.9359 163.406 1364.1484)">
						<stop offset="0" style="stop-color:#2B3582"/>
						<stop offset="1" style="stop-color:#150E42"/>
					</linearGradient>
					<path style="fill:url(#SVGID_00000106129396330744293170000015848838404926825876_);" d="M876.378,511.855
					c-2.627,6.976-10.411,10.503-17.388,7.876c-6.976-2.627-10.503-10.411-7.876-17.388c2.627-6.976,10.411-10.503,17.387-7.876
					C875.478,497.094,879.005,504.878,876.378,511.855z"/>

					<linearGradient id="SVGID_00000129921552261546474380000001330314819128755113_" gradientUnits="userSpaceOnUse" x1="344.2896" y1="-1050.6533" x2="362.8213" y2="-1046.8733" gradientTransform="matrix(0.9359 0.3523 -0.3523 0.9359 163.406 1364.1484)">
						<stop offset="0" style="stop-color:#B37CFF"/>
						<stop offset="1" style="stop-color:#F895E7"/>
					</linearGradient>
					<path style="fill:url(#SVGID_00000129921552261546474380000001330314819128755113_);" d="M863.768,516.625
					c-1.105,0-2.228-0.195-3.322-0.607c-4.879-1.837-7.354-7.301-5.517-12.181c1.836-4.879,7.3-7.356,12.181-5.518
					c4.879,1.837,7.354,7.301,5.517,12.181C871.202,514.286,867.593,516.625,863.768,516.625z M863.787,498.712
					c-3.421,0-6.648,2.091-7.923,5.477c-1.643,4.363,0.571,9.25,4.934,10.892c4.363,1.642,9.25-0.571,10.893-4.934
					c0.795-2.114,0.721-4.411-0.211-6.468c-0.932-2.058-2.609-3.629-4.723-4.425C865.78,498.887,864.775,498.712,863.787,498.712z" />
				</g>
			</g>
		</g>
		<g>

			<linearGradient id="SVGID_00000153680449187479605660000005422414294762809259_" gradientUnits="userSpaceOnUse" x1="2880.3503" y1="721.3387" x2="2791.345" y2="818.1517" gradientTransform="matrix(1 0 0 1 -2648.7798 0)">
				<stop offset="0" style="stop-color:#2B3582"/>
				<stop offset="1" style="stop-color:#150E42"/>
			</linearGradient>
			<path style="fill:url(#SVGID_00000153680449187479605660000005422414294762809259_);" d="M203.436,728.551
			c0,0-0.922,5.218-1.374,10.384c-0.177,2.019,1.38,3.771,3.405,3.856c6.879,0.286,21.593,0.844,26.873,0.608
			c0.794-0.035,1.313-0.848,1.019-1.586c-0.246-0.618-0.721-1.119-1.326-1.397l-24.305-11.171L203.436,728.551z"/>

			<linearGradient id="SVGID_00000068666291524615216110000010384716436753919646_" gradientUnits="userSpaceOnUse" x1="2851.4607" y1="728.5292" x2="2859.3665" y2="728.5292" gradientTransform="matrix(1 0 0 1 -2648.7798 0)">
				<stop offset="0" style="stop-color:#F9B776"/>
				<stop offset="1" style="stop-color:#F47960"/>
			</linearGradient>
			<path style="fill:url(#SVGID_00000068666291524615216110000010384716436753919646_);" d="M202.681,725.485l0.741,6.242
			c0,0,4.258,1.982,7.165-0.25l-1.763-6.956L202.681,725.485z"/>

			<linearGradient id="SVGID_00000180335635567253768090000016077524431436446399_" gradientUnits="userSpaceOnUse" x1="2887.3586" y1="611.8535" x2="2811.6235" y2="714.5027" gradientTransform="matrix(1 0 0 1 -2648.7798 0)">
				<stop offset="0" style="stop-color:#2B3582"/>
				<stop offset="1" style="stop-color:#150E42"/>
			</linearGradient>
			<path style="fill:url(#SVGID_00000180335635567253768090000016077524431436446399_);" d="M203.237,608.138
			c-0.32,1.63-1.717,81.34,6.803,117.061c0.139,0.583-0.157,1.184-0.711,1.41c-1.307,0.534-3.869,1.307-6.939,1.41
			c-0.951,0.032-1.803-0.586-2.072-1.499c-2.436-8.288-14.106-49.812-15.629-89.479c-1.701-44.324,0-1.509,0-1.509l0.998-27.398
			L203.237,608.138z"/>

			<linearGradient id="SVGID_00000051370600432010389810000017053842615534404285_" gradientUnits="userSpaceOnUse" x1="2860.3835" y1="702.982" x2="2771.3779" y2="799.795" gradientTransform="matrix(1 0 0 1 -2648.7798 0)">
				<stop offset="0" style="stop-color:#2B3582"/>
				<stop offset="1" style="stop-color:#150E42"/>
			</linearGradient>
			<path style="fill:url(#SVGID_00000051370600432010389810000017053842615534404285_);" d="M175.477,731.273
			c0,0-1.467,2.634-2.888,9.635c-0.257,1.264,0.627,2.474,1.911,2.6c2.271,0.223,5.768,0.511,8.569,0.491
			c1.291-0.009,2.299-1.133,2.143-2.415c-0.31-2.555-1.277-6.747-4.263-10.015L175.477,731.273z"/>

			<linearGradient id="SVGID_00000173132400900715754020000005932781481482809004_" gradientUnits="userSpaceOnUse" x1="2822.9678" y1="728.1237" x2="2829.7937" y2="728.1237" gradientTransform="matrix(1 0 0 1 -2648.7798 0)">
				<stop offset="0" style="stop-color:#F9B776"/>
				<stop offset="1" style="stop-color:#F47960"/>
			</linearGradient>
			<path style="fill:url(#SVGID_00000173132400900715754020000005932781481482809004_);" d="M174.188,723.245l1.73,9.439
			c0,0,1.711,1.273,5.096,0.35l-0.826-10.156L174.188,723.245z"/>

			<linearGradient id="SVGID_00000111155211732106746560000010198623092146526339_" gradientUnits="userSpaceOnUse" x1="2873.8608" y1="601.8947" x2="2798.1257" y2="704.5438" gradientTransform="matrix(1 0 0 1 -2648.7798 0)">
				<stop offset="0" style="stop-color:#2B3582"/>
				<stop offset="1" style="stop-color:#150E42"/>
			</linearGradient>
			<path style="fill:url(#SVGID_00000111155211732106746560000010198623092146526339_);" d="M169.513,610.584
			c-6.969,42.056,1.512,103.945,4.372,116.057c0.175,0.742,0.774,1.31,1.525,1.435c1.277,0.211,3.378,0.384,5.451-0.217
			c0.714-0.207,1.215-0.851,1.245-1.594c0.384-9.793-0.307-69.913,6.186-93.673c0.329-1.204,1.064-2.254,2.082-2.977l12.603-8.96
			l0.966-14.482L169.513,610.584z"/>
			<g>

				<linearGradient id="SVGID_00000014630157052262582220000003307526719317711491_" gradientUnits="userSpaceOnUse" x1="-393.0906" y1="527.3394" x2="-354.1803" y2="737.3605" gradientTransform="matrix(-1 0 0 1 -183.4976 0)">
					<stop offset="0" style="stop-color:#FDF53F"/>
					<stop offset="1" style="stop-color:#D93C65"/>
				</linearGradient>
				<path style="fill:url(#SVGID_00000014630157052262582220000003307526719317711491_);" d="M213.917,530.897
				c-20.883-0.345-43.926,5.483-43.926,5.483c-6.225,36.322-1.089,78.218-1.089,78.218c16.167,4.24,34.405-2.592,34.405-2.592
				c2.687-15.182,15.225-57.909,15.225-57.909c10.204-1.266,18.609-4.21,25.531-8.102c-5.28-6.12-7.769-13.908-8.85-18.512
				C227.83,529.777,220.358,531.003,213.917,530.897z"/>

				<linearGradient id="SVGID_00000070081255758080492570000001251429405601083832_" gradientUnits="userSpaceOnUse" x1="-452.8728" y1="475.2155" x2="-438.9239" y2="515.0697" gradientTransform="matrix(-1 0 0 1 -183.4976 0)">
					<stop offset="0" style="stop-color:#F9B776"/>
					<stop offset="1" style="stop-color:#F47960"/>
				</linearGradient>
				<path style="fill:url(#SVGID_00000070081255758080492570000001251429405601083832_);" d="M275.603,500.136
				c-2.051-2.478-4.648-1.306-4.648-1.306c-3.073,12.982-19.187,23.507-35.742,28.652c1.081,4.604,3.57,12.391,8.85,18.512
				C271.538,530.547,275.603,500.136,275.603,500.136z"/>
			</g>
			<g>

				<linearGradient id="SVGID_00000110448968661918400990000016006572383192210053_" gradientUnits="userSpaceOnUse" x1="-464.7951" y1="479.3883" x2="-450.8462" y2="519.2424" gradientTransform="matrix(-1 0 0 1 -183.4976 0)">
					<stop offset="0" style="stop-color:#F9B776"/>
					<stop offset="1" style="stop-color:#F47960"/>
				</linearGradient>
				<path style="fill:url(#SVGID_00000110448968661918400990000016006572383192210053_);" d="M275.105,500.766
				c0.215,0.683-2.271,1.722-3.735-1.069c-0.051-1.338-0.865-7.068-0.065-8.158c4.257-5.804,12.51-13.079,12.51-13.079
				c1.395,1.376,0.246,2.728,0.246,2.728l-4.004,4.171c0.837,1.513,1.859,2.791,2.338,4.621c0.363,1.386,0.141,2.868-0.559,4.129
				c-0.703,1.266-1.662,2.912-2.568,4.2C277.552,500.748,275.105,500.766,275.105,500.766z"/>

				<linearGradient id="SVGID_00000114794657484770257440000008147378605711220105_" gradientUnits="userSpaceOnUse" x1="-454.0794" y1="504.8509" x2="-464.5864" y2="483.6557" gradientTransform="matrix(-1 0 0 1 -183.4976 0)">
					<stop offset="0" style="stop-color:#F9B776"/>
					<stop offset="1" style="stop-color:#F47960"/>
				</linearGradient>
				<path style="fill:url(#SVGID_00000114794657484770257440000008147378605711220105_);" d="M278.306,488.066l-3.649,3.093
				l-1.145,3.079l3.253,3.609c0,0,1.094-6.11,1.907-7.433C279.485,489.092,279.063,488.452,278.306,488.066z"/>
			</g>

			<linearGradient id="SVGID_00000167394527888940198310000011839594812789232545_" gradientUnits="userSpaceOnUse" x1="-353.8173" y1="520.0632" x2="-314.907" y2="730.0841" gradientTransform="matrix(-1 0 0 1 -183.4976 0)">
				<stop offset="0" style="stop-color:#FDF53F"/>
				<stop offset="1" style="stop-color:#D93C65"/>
			</linearGradient>
			<path style="fill:url(#SVGID_00000167394527888940198310000011839594812789232545_);" d="M178.001,556.601l-8.01-20.221
			c0,0-19.506,13.254-22.714,30.058c3.686,0.271,10.393,1.23,16.957,4.545C165.677,563.048,178.001,556.601,178.001,556.601z"/>

			<linearGradient id="SVGID_00000003101730377844014670000010241040566791065504_" gradientUnits="userSpaceOnUse" x1="2795.6121" y1="579.4851" x2="2846.7256" y2="579.4851" gradientTransform="matrix(1 0 0 1 -2648.7798 0)">
				<stop offset="0" style="stop-color:#F9B776"/>
				<stop offset="1" style="stop-color:#F47960"/>
			</linearGradient>
			<path style="fill:url(#SVGID_00000003101730377844014670000010241040566791065504_);" d="M195.048,575.629
			c0,0-21.9,12.377-29.29,1.809c-1.534-2.195-1.901-4.376-1.523-6.455c-6.565-3.315-13.271-4.273-16.957-4.545
			c-0.967,5.066-0.456,10.454,2.521,15.899c12.944,23.678,48.148-1.309,48.148-1.309L195.048,575.629z"/>
			<g>

				<linearGradient id="SVGID_00000116914965195817079750000017985831665613240704_" gradientUnits="userSpaceOnUse" x1="2862.1895" y1="543.1449" x2="2890.2949" y2="660.2518" gradientTransform="matrix(1 0 0 1 -2648.7798 0)">
					<stop offset="0" style="stop-color:#9CFFFB"/>
					<stop offset="1" style="stop-color:#9BFFFA"/>
				</linearGradient>
				<path style="fill:url(#SVGID_00000116914965195817079750000017985831665613240704_);" d="M192.416,591.287l11.953-41.741
				c0.136-0.474,0.54-0.819,1.03-0.877c2.166-0.253,8.44-0.962,15.686-1.575c8.727-0.738,18.862-1.336,24.918-0.827
				c0.861,0.072,1.381,0.983,0.998,1.758c-3.444,6.968-17.61,35.31-24.704,44.594c-0.235,0.308-0.598,0.487-0.986,0.484
				l-27.732-0.258C192.772,592.838,192.194,592.063,192.416,591.287z"/>

				<linearGradient id="SVGID_00000005224418561538143440000000551665612035178382_" gradientUnits="userSpaceOnUse" x1="2879.7861" y1="524.6858" x2="2873.8005" y2="550.9708" gradientTransform="matrix(1 0 0 1 -2648.7798 0)">
					<stop offset="0" style="stop-color:#53D8FF"/>
					<stop offset="1" style="stop-color:#3840F7"/>
				</linearGradient>
				<path style="fill:url(#SVGID_00000005224418561538143440000000551665612035178382_);" d="M222.324,543.476l8.666-1.444
				c0.462-0.077,0.84,0.364,0.693,0.808l-0.858,2.599c-0.075,0.226-0.272,0.39-0.508,0.422l-8.339,1.114
				c-0.431,0.057-0.787-0.335-0.688-0.758l0.531-2.27C221.878,543.704,222.076,543.518,222.324,543.476z"/>

				<linearGradient id="SVGID_00000071530008773048293370000007353338498893460147_" gradientUnits="userSpaceOnUse" x1="2876.6536" y1="535.7115" x2="2873.7908" y2="552.888" gradientTransform="matrix(1 0 0 1 -2648.7798 0)">
					<stop offset="0" style="stop-color:#53D8FF"/>
					<stop offset="1" style="stop-color:#3840F7"/>
				</linearGradient>
				<path style="fill:url(#SVGID_00000071530008773048293370000007353338498893460147_);" d="M215.835,550.813l0.714-3.719
				c0.072-0.373,0.38-0.655,0.757-0.693l17.503-1.776c0.589-0.06,1.061,0.48,0.923,1.056l-1.113,4.634
				c-0.089,0.371-0.412,0.638-0.793,0.658l-17.104,0.861C216.166,551.861,215.73,551.36,215.835,550.813z"/>

				<linearGradient id="SVGID_00000052073263428654268690000008018795149003886754_" gradientUnits="userSpaceOnUse" x1="2842.9307" y1="574.1259" x2="2858.8547" y2="574.1259" gradientTransform="matrix(1 0 0 1 -2648.7798 0)">
					<stop offset="0" style="stop-color:#F9B776"/>
					<stop offset="1" style="stop-color:#F47960"/>
				</linearGradient>
				<path style="fill:url(#SVGID_00000052073263428654268690000008018795149003886754_);" d="M195.304,581.203
				c0,0-1.665-6.846-0.993-9.275c0.672-2.429,1.973-5.552,6.31-4.858c4.337,0.694,9.454,2.521,9.454,2.521s-0.258,3.164-3.555,2.143
				l2.044,1.582c0,0-0.292,2.533-3.077,1.18l1.901,2.098c0,0-1.196,2.081-3.244,0.746
				C202.096,576.005,201.114,582.027,195.304,581.203z"/>
			</g>

			<linearGradient id="SVGID_00000100373267359708976130000009947496999427411077_" gradientUnits="userSpaceOnUse" x1="2834.8604" y1="524.8415" x2="2855.0688" y2="524.8415" gradientTransform="matrix(1 0 0 1 -2648.7798 0)">
				<stop offset="0" style="stop-color:#F9B776"/>
				<stop offset="1" style="stop-color:#F47960"/>
			</linearGradient>
			<path style="fill:url(#SVGID_00000100373267359708976130000009947496999427411077_);" d="M192.764,513.943l-6.645,19.216
			c-0.11,0.318,0.021,0.671,0.316,0.834c1.811,1.001,8.337,3.896,16.201-1.09c0.819-0.519,1.377-1.367,1.501-2.329l2.152-16.632
			H192.764z"/>
			<g>

				<linearGradient id="SVGID_00000155122380620128987720000005363657096473672068_" gradientUnits="userSpaceOnUse" x1="-3854.3562" y1="-61.9084" x2="-3861.908" y2="-86.8158" gradientTransform="matrix(0.746 -0.6659 0.6659 0.746 3127.6702 -2008.4471)">
					<stop offset="0" style="stop-color:#F9B776"/>
					<stop offset="1" style="stop-color:#F47960"/>
				</linearGradient>
				<path style="fill:url(#SVGID_00000155122380620128987720000005363657096473672068_);" d="M207.222,496.147
				c0,0,7.297,13.735,6.361,19.284c-0.935,5.548-9.978,5.15-17.875,0.644l-5.518-14.831L207.222,496.147z"/>

				<linearGradient id="SVGID_00000142160665601773767040000017993323624618782117_" gradientUnits="userSpaceOnUse" x1="-3861.1694" y1="-105.306" x2="-3854.8525" y2="-69.2756" gradientTransform="matrix(0.746 -0.6659 0.6659 0.746 3127.6702 -2008.4471)">
					<stop offset="0" style="stop-color:#2B3582"/>
					<stop offset="1" style="stop-color:#150E42"/>
				</linearGradient>
				<path style="fill:url(#SVGID_00000142160665601773767040000017993323624618782117_);" d="M196.057,508.791
				c0.321-0.142,0.439-0.535,0.247-0.828c-0.585-0.893-1.681-2.715-2.03-4.31c0,0-1.312-0.84,3.339-1.953
				c4.65-1.113,11.585-2.841,13.043-6.799c1.421-3.859-2.313-13.565-8.27-5.831c-0.227,0.294-0.671,0.301-0.897,0.006
				c-0.977-1.271-3.544-3.909-7.109-2.31c-3.336,1.497-3.712,3.941-3.666,5.173c0.013,0.362-0.311,0.644-0.667,0.576
				c-1.687-0.322-5.734-0.598-7.623,3.554c-1.556,3.42-0.545,5.356,0.376,6.303c0.298,0.307,0.168,0.812-0.242,0.937
				c-1.108,0.339-2.54,1.279-2.396,3.876c0.198,3.59,4.212,3.274,5.355,3.11c0.187-0.027,0.376,0.038,0.503,0.178
				c0.98,1.084,5.395,5.689,10.173,6.244c0.414,0.048,0.735-0.361,0.599-0.754l-2.068-6.011c-0.096-0.279,0.038-0.586,0.307-0.705
				L196.057,508.791z"/>

				<linearGradient id="SVGID_00000054984282777574470420000006920790504400987552_" gradientUnits="userSpaceOnUse" x1="-3862.0759" y1="-62.0244" x2="-3868.8704" y2="-84.4339" gradientTransform="matrix(0.746 -0.6659 0.6659 0.746 3127.6702 -2008.4471)">
					<stop offset="0" style="stop-color:#F9B776"/>
					<stop offset="1" style="stop-color:#F47960"/>
				</linearGradient>
				<path style="fill:url(#SVGID_00000054984282777574470420000006920790504400987552_);" d="M196.889,509.645
				c0,0-5.195-3.565-5.575-0.563c-0.38,3.002,4.678,4.348,7.184,3.229L196.889,509.645z"/>
			</g>
		</g>
		<g>

			<linearGradient id="SVGID_00000074427067852875299370000011023505034924401796_" gradientUnits="userSpaceOnUse" x1="1042.4497" y1="302.3526" x2="1042.2446" y2="342.7489">
				<stop offset="0" style="stop-color:#53D8FF"/>
				<stop offset="1" style="stop-color:#3840F7"/>
			</linearGradient>
			<path style="fill:url(#SVGID_00000074427067852875299370000011023505034924401796_);" d="M1067.36,316.778
			c-0.088-1.095-1.207-2.043-3.101-2.803c2.058-1.135,3.197-2.352,3.101-3.545c-0.291-3.61-11.725-5.634-25.537-4.521
			c-13.813,1.114-24.774,4.943-24.483,8.554c0.088,1.095,1.207,2.043,3.101,2.803c-2.058,1.135-3.197,2.352-3.101,3.545
			c0.088,1.095,1.207,2.043,3.101,2.803c-2.058,1.135-3.197,2.352-3.101,3.545c0.088,1.095,1.207,2.043,3.101,2.803
			c-2.058,1.135-3.197,2.352-3.101,3.545c0.129,1.597,2.44,2.882,6.169,3.724c-0.048,1.18-0.021,2.473,0.095,3.901
			c0.54,6.653,8.023,11.869,17.921,11.869c9.897,0,18.464-7.112,18.561-13.786c0.024-1.636-0.046-3.075-0.194-4.355
			c4.736-1.581,7.62-3.513,7.469-5.387c-0.088-1.095-1.207-2.043-3.101-2.803c2.058-1.135,3.197-2.352,3.101-3.545
			c-0.088-1.095-1.207-2.043-3.101-2.803C1066.318,319.187,1067.457,317.971,1067.36,316.778z"/>
			<g>

				<linearGradient id="SVGID_00000071561051747442793690000011340552512295519927_" gradientUnits="userSpaceOnUse" x1="1039.9028" y1="341.8396" x2="1018.2293" y2="420.7935">
					<stop offset="0" style="stop-color:#53D8FF"/>
					<stop offset="1" style="stop-color:#3840F7"/>
				</linearGradient>
				<path style="fill:url(#SVGID_00000071561051747442793690000011340552512295519927_);" d="M1035.432,338.667
				c-4.102,0-7.856-0.302-10.957-0.896c-0.18-0.034-0.298-0.208-0.263-0.388c0.034-0.18,0.207-0.298,0.388-0.263
				c4.853,0.929,11.335,1.134,18.251,0.576c5.66-0.456,10.953-1.369,15.307-2.64c0.176-0.051,0.36,0.05,0.411,0.225
				c0.051,0.176-0.049,0.36-0.225,0.411c-4.396,1.283-9.735,2.204-15.439,2.664C1040.335,338.564,1037.824,338.667,1035.432,338.667
				z"/>

				<linearGradient id="SVGID_00000069356860189193272160000002825916608022884254_" gradientUnits="userSpaceOnUse" x1="1039.1008" y1="341.6194" x2="1017.4271" y2="420.5737">
					<stop offset="0" style="stop-color:#53D8FF"/>
					<stop offset="1" style="stop-color:#3840F7"/>
				</linearGradient>
				<path style="fill:url(#SVGID_00000069356860189193272160000002825916608022884254_);" d="M1035.5,332.314
				c-5.33,0-10.093-0.501-13.453-1.458c-0.176-0.05-0.278-0.234-0.228-0.41c0.05-0.176,0.233-0.278,0.41-0.228
				c4.787,1.363,12.496,1.786,20.621,1.131c8.037-0.648,15.532-2.279,20.05-4.363c0.167-0.076,0.364-0.004,0.44,0.162
				c0.077,0.166,0.004,0.364-0.162,0.44c-4.585,2.115-12.165,3.767-20.275,4.421C1040.373,332.214,1037.88,332.314,1035.5,332.314z" />

				<linearGradient id="SVGID_00000062906520122065957180000011382154503091407778_" gradientUnits="userSpaceOnUse" x1="1037.0858" y1="341.0662" x2="1015.4122" y2="420.0205">
					<stop offset="0" style="stop-color:#53D8FF"/>
					<stop offset="1" style="stop-color:#3840F7"/>
				</linearGradient>
				<path style="fill:url(#SVGID_00000062906520122065957180000011382154503091407778_);" d="M1035.432,325.971
				c-5.755,0-10.791-0.589-14.18-1.707c-0.174-0.057-0.269-0.245-0.211-0.419c0.057-0.174,0.244-0.269,0.419-0.211
				c4.717,1.555,12.714,2.066,21.391,1.367c8.036-0.648,15.532-2.279,20.05-4.363c0.167-0.076,0.364-0.004,0.44,0.162
				c0.077,0.166,0.004,0.363-0.162,0.44c-4.586,2.115-12.165,3.768-20.275,4.421
				C1040.334,325.869,1037.821,325.971,1035.432,325.971z"/>

				<linearGradient id="SVGID_00000033349995975342880730000011233566834122819470_" gradientUnits="userSpaceOnUse" x1="1036.5461" y1="340.918" x2="1014.8725" y2="419.8722">
					<stop offset="0" style="stop-color:#53D8FF"/>
					<stop offset="1" style="stop-color:#3840F7"/>
				</linearGradient>
				<path style="fill:url(#SVGID_00000033349995975342880730000011233566834122819470_);" d="M1035.477,319.62
				c-4.565,0-8.717-0.369-11.945-1.086c-0.179-0.04-0.292-0.217-0.252-0.396c0.04-0.179,0.218-0.292,0.396-0.252
				c4.854,1.079,11.843,1.358,19.175,0.767c7.965-0.642,15.422-2.255,19.948-4.316c0.167-0.076,0.363-0.002,0.439,0.165
				c0.076,0.167,0.002,0.363-0.164,0.439c-4.592,2.09-12.132,3.725-20.169,4.373C1040.364,319.519,1037.864,319.62,1035.477,319.62z
				"/>
			</g>

			<linearGradient id="SVGID_00000021108136191456212760000016083979117907434665_" gradientUnits="userSpaceOnUse" x1="1043.2186" y1="189.7524" x2="1036.5839" y2="370.2203">
				<stop offset="0" style="stop-color:#FDF53F"/>
				<stop offset="1" style="stop-color:#D93C65"/>
			</linearGradient>
			<path style="fill:url(#SVGID_00000021108136191456212760000016083979117907434665_);" d="M1008.069,284.737
			c-1.678-5.942-4.527-11.495-8.365-16.332c-8.223-10.363-21.638-31.44-23.289-60.205c-2.402-41.84,34.706-62.788,68.567-59.944
			c33.861,2.844,67.274,28.056,63.616,66.98c-2.251,23.95-15.656,42.117-25.637,52.55c-6.338,6.625-10.859,14.739-13.306,23.575
			c-2.995,10.814-10.124,24.292-27.066,25.113C1020.666,317.537,1011.56,297.102,1008.069,284.737z"/>

			<linearGradient id="SVGID_00000085948372877585203930000009107106140220619174_" gradientUnits="userSpaceOnUse" x1="1054.9215" y1="253.1632" x2="1059.787" y2="407.7547">
				<stop offset="0" style="stop-color:#FDF53F"/>
				<stop offset="1" style="stop-color:#D93C65"/>
			</linearGradient>
			<path style="fill:url(#SVGID_00000085948372877585203930000009107106140220619174_);" d="M1048.189,308.13l11.848-77.061
			c0.245-1.592,1.028-2.661,1.75-2.388c0.722,0.273,1.108,1.785,0.864,3.377c-0.007,0.042-0.015,0.095-0.023,0.136l-13.496,76.345
			c-0.101,0.574-0.393,0.937-0.651,0.81C1048.231,309.227,1048.104,308.686,1048.189,308.13z"/>

			<linearGradient id="SVGID_00000168808535031121831330000001164011346426848658_" gradientUnits="userSpaceOnUse" x1="1028.1194" y1="254.0067" x2="1032.985" y2="408.5985">
				<stop offset="0" style="stop-color:#FDF53F"/>
				<stop offset="1" style="stop-color:#D93C65"/>
			</linearGradient>
			<path style="fill:url(#SVGID_00000168808535031121831330000001164011346426848658_);" d="M1035.891,308.742l-11.848-77.061
			c-0.245-1.592-1.028-2.661-1.75-2.388c-0.722,0.273-1.108,1.785-0.864,3.377c0.007,0.042,0.015,0.095,0.023,0.137l13.496,76.345
			c0.101,0.574,0.393,0.937,0.651,0.81C1035.849,309.839,1035.976,309.298,1035.891,308.742z"/>
			<path style="fill:#FFFFFF;" d="M1059.953,224.453c-0.301-0.484-0.997-0.665-1.555-0.404l-6.597,3.083l-2.29-6.525
			c-0.121-0.34-0.402-0.642-0.802-0.807c-0.759-0.313-1.666-0.033-2.027,0.625l-0.012,0.021l-5.426,9.892l-5.035-14.082
			l-0.008-0.023c-0.123-0.344-0.383-0.653-0.762-0.859c-0.844-0.461-1.96-0.241-2.491,0.491l-7.585,10.442
			c-0.308,0.428-0.202,1.001,0.267,1.318c0.501,0.338,1.223,0.259,1.613-0.175l6.678-7.45l6.013,13.396l0.005,0.01
			c0.096,0.214,0.278,0.401,0.53,0.519c0.564,0.264,1.269,0.082,1.573-0.407l5.803-9.311l2.184,4.71l0.019,0.042
			c0.016,0.034,0.034,0.067,0.054,0.1c0.301,0.483,0.996,0.664,1.554,0.404l7.831-3.659
			C1060.045,225.541,1060.253,224.937,1059.953,224.453z"/>
			<path style="fill:#FFFFFF;" d="M1083.22,257.848c-0.311,0-0.625-0.096-0.893-0.296c-0.665-0.494-0.804-1.433-0.311-2.099
			c2.019-2.72,3.868-5.529,5.497-8.349c0.415-0.717,1.331-0.964,2.049-0.549c0.717,0.414,0.963,1.332,0.549,2.049
			c-1.685,2.919-3.598,5.825-5.685,8.637C1084.131,257.638,1083.678,257.848,1083.22,257.848z"/>
			<path style="fill:#FFFFFF;" d="M1092.967,241.121c-0.199,0-0.402-0.04-0.597-0.125c-0.76-0.33-1.108-1.213-0.778-1.974
			c12.495-28.775,1.721-53.037,1.611-53.279c-0.343-0.753-0.012-1.643,0.741-1.987c0.753-0.344,1.642-0.015,1.987,0.738
			c0.474,1.034,11.461,25.672-1.587,55.723C1094.098,240.783,1093.546,241.121,1092.967,241.121z"/>
		</g>
		<path style="opacity:0.6;fill:#FFFFFF;" d="M849.83,179.899c-6.733-13.156-0.869-37.795,30.079-30.319
		c-1.868-6.751,20.698-38.981,51.395-2.098c-1.612-11.253,22.509-14.832,33.288,1.002c6.629-7.583,35.043,6.084,10.052,20.269
		c-31.914,18.115-109.829,47.346-132.909,29.278C818.656,179.963,849.83,179.899,849.83,179.899z"/>
		<path style="fill:#FAF3FE;" d="M492.468,352.556c-11.16,0-23.135-1.746-35.499-5.305c-11.653-3.354-23.163-7.848-34.294-12.193
		c-16.983-6.63-34.544-13.486-52.764-16.314c-28.665-4.45-59.381,1.539-84.275,16.428c-0.473,0.284-1.087,0.13-1.371-0.345
		c-0.283-0.474-0.129-1.088,0.345-1.372c25.288-15.125,56.49-21.209,85.608-16.688c18.436,2.862,36.101,9.759,53.184,16.428
		c11.089,4.329,22.555,8.806,34.12,12.134c35.287,10.156,67.27,5.345,85.558-12.87c0.392-0.39,1.025-0.388,1.414,0.003
		c0.39,0.391,0.389,1.024-0.003,1.414C532.143,346.175,513.797,352.555,492.468,352.556z"/>
		<path style="fill:#FAF3FE;" d="M631.838,520.007c-15.812,0-31.618-1.844-47.036-5.631c-23.242-5.709-45.472-15.598-66.97-25.161
		c-14.676-6.528-29.851-13.279-45.214-18.639c-27.521-9.604-56.245-15.043-85.373-16.167c-32.948-1.271-58.31,4.159-77.532,16.601
		c-0.464,0.301-1.082,0.167-1.383-0.296c-0.3-0.464-0.167-1.083,0.296-1.383c19.58-12.674,45.325-18.205,78.696-16.921
		c29.327,1.132,58.246,6.608,85.955,16.277c15.44,5.388,30.655,12.156,45.368,18.701c21.418,9.527,43.565,19.379,66.634,25.045
		c61.986,15.227,130.473-1.259,178.741-43.02c0.417-0.361,1.05-0.315,1.411,0.102c0.361,0.417,0.315,1.049-0.102,1.411
		C728.584,502.717,680.228,520.005,631.838,520.007z"/>
		<path style="fill:#FAF3FE;" d="M802.872,578.402c-14.253,0-26.354-2.795-36.065-8.344c-0.479-0.274-0.646-0.885-0.372-1.364
		c0.274-0.479,0.884-0.646,1.364-0.372c11.427,6.528,26.339,9.12,44.321,7.705c37.285-2.936,72.12-20.42,98.302-35.323
		c8.721-4.964,17.49-10.221,25.97-15.305c21.318-12.782,43.363-25.998,66.673-35.778c31.715-13.307,59.165-16.05,81.588-8.153
		c6.119,2.155,16.77,7.258,19.35,17.225c1.839,7.105-1.508,15.333-7.784,19.138c-6.277,3.805-15.12,2.966-20.568-1.953
		c-2.89-2.608-4.203-5.887-3.513-8.771c0.451-1.884,2.107-3.526,4.121-4.087c1.671-0.468,3.258-0.099,4.35,1.008
		c0.388,0.394,0.383,1.027-0.01,1.415c-0.394,0.387-1.027,0.383-1.415-0.01c-0.774-0.786-1.83-0.642-2.389-0.486
		c-1.315,0.366-2.43,1.446-2.712,2.626c-0.609,2.544,1.103,5.191,2.908,6.821c4.819,4.35,12.64,5.092,18.191,1.727
		c5.552-3.365,8.511-10.642,6.885-16.927c-2.348-9.069-12.334-13.817-18.078-15.839c-21.942-7.729-48.908-4.999-80.151,8.11
		c-23.178,9.725-45.16,22.904-66.418,35.649c-8.49,5.09-17.268,10.353-26.009,15.329c-50.187,28.567-79.342,34.02-99.134,35.579
		C809.046,578.274,805.91,578.402,802.872,578.402z"/>
		<path style="fill:#FAF3FE;" d="M935.786,495.789c-0.318,0-0.631-0.151-0.825-0.434c-0.313-0.455-0.197-1.078,0.258-1.391
		c29.951-20.594,63.899-43.935,102.58-50.333c18.882-3.122,34.297-0.907,45.815,6.585c0.463,0.301,0.594,0.921,0.293,1.384
		c-0.302,0.463-0.921,0.593-1.384,0.293c-11.087-7.212-26.024-9.329-44.398-6.289c-38.241,6.325-71.994,29.532-101.773,50.008
		C936.178,495.732,935.981,495.789,935.786,495.789z"/>
	</g>
</svg>
